<svg width="30" height="30" viewBox="0 0 30 30" fill="none" xmlns="http://www.w3.org/2000/svg">
<path d="M7.63 7.38751C8.36 7.98001 8.6325 7.93501 10.0025 7.84376L22.9175 7.06876C23.1925 7.06876 22.9638 6.79376 22.8725 6.74876L20.7275 5.19876C20.3163 4.88001 19.7687 4.51376 18.72 4.60501L6.21375 5.51751C5.75875 5.56251 5.6675 5.79126 5.84875 5.97376L7.63 7.38751ZM8.405 10.3975V23.985C8.405 24.7163 8.77 24.9888 9.5925 24.9438L23.785 24.1225C24.6062 24.0775 24.6975 23.575 24.6975 22.9813V9.48501C24.6975 8.89251 24.47 8.57251 23.9675 8.61876L9.135 9.48501C8.5875 9.53001 8.405 9.80376 8.405 10.3975ZM22.4175 11.1263C22.5075 11.5363 22.4175 11.9475 22.005 11.9938L21.3212 12.13V22.1613C20.7275 22.4813 20.18 22.6625 19.7238 22.6625C18.9938 22.6625 18.8113 22.435 18.2638 21.7513L13.79 14.7288V21.5238L15.2062 21.8425C15.2062 21.8425 15.2063 22.6625 14.0638 22.6625L10.915 22.845C10.8238 22.6625 10.915 22.2075 11.235 22.1163L12.0563 21.8888V12.905L10.915 12.8138C10.8238 12.4025 11.0525 11.81 11.6912 11.7638L15.0688 11.5363L19.7238 18.6513V12.3575L18.5363 12.2213C18.4463 11.7188 18.8112 11.355 19.2675 11.3088L22.4175 11.1263ZM5.16375 4.28626L18.1712 3.32876C19.7675 3.19126 20.1788 3.28376 21.1838 4.01251L25.335 6.93126C26.02 7.43251 26.2488 7.56876 26.2488 8.11626V24.1225C26.2488 25.1263 25.8837 25.7188 24.6062 25.81L9.5 26.7225C8.54125 26.7675 8.085 26.6313 7.5825 25.9925L4.525 22.025C3.9775 21.295 3.75 20.7488 3.75 20.1088V5.88126C3.75 5.06126 4.11375 4.37751 5.16375 4.28626Z" fill="black"/>
</svg>
